HIERARCHY
ROOT Hips
{
	OFFSET 0.000000 0.000000 0.000000
	CHANNELS 6 Xposition Yposition Zposition Zrotation Yrotation Xrotation 
	JOINT LHipJoint
	{
		OFFSET 0.000000 0.000000 0.000000
		CHANNELS 3 Zrotation Yrotation Xrotation
		JOINT LeftUpLeg
		{
			OFFSET 1.363060 -1.794630 0.839290
			CHANNELS 3 Zrotation Yrotation Xrotation
			JOINT LeftLeg
			{
				OFFSET 2.448110 -6.726130 0.000000
				CHANNELS 3 Zrotation Yrotation Xrotation
				JOINT LeftFoot
				{
					OFFSET 2.562200 -7.039590 0.000000
					CHANNELS 3 Zrotation Yrotation Xrotation
					JOINT LeftToeBase
					{
						OFFSET 0.157640 -0.433110 2.322550
						CHANNELS 3 Zrotation Yrotation Xrotation
						End Site
						{
							OFFSET 0.000000 0.000000 0.000000
						}
					}
				}
			}
		}
	}
	JOINT RHipJoint
	{
		OFFSET 0.000000 0.000000 0.000000
		CHANNELS 3 Zrotation Yrotation Xrotation
		JOINT RightUpLeg
		{
			OFFSET -1.305520 -1.794630 0.839290
			CHANNELS 3 Zrotation Yrotation Xrotation
			JOINT RightLeg
			{
				OFFSET -2.542530 -6.985550 0.000000
				CHANNELS 3 Zrotation Yrotation Xrotation
				JOINT RightFoot
				{
					OFFSET -2.568260 -7.056230 0.000000
					CHANNELS 3 Zrotation Yrotation Xrotation
					JOINT RightToeBase
					{
						OFFSET -0.164730 -0.452590 2.363150
						CHANNELS 3 Zrotation Yrotation Xrotation
						End Site
						{
							OFFSET 0.000000 0.000000 0.000000
						}
					}
				}
			}
		}
	}
	JOINT LowerBack
	{
		OFFSET 0.000000 0.000000 0.000000
		CHANNELS 3 Zrotation Yrotation Xrotation
		JOINT Spine
		{
			OFFSET 0.028270 2.035590 -0.193380
			CHANNELS 3 Zrotation Yrotation Xrotation
			JOINT Spine1
			{
				OFFSET 0.056720 2.048850 -0.042750
				CHANNELS 3 Zrotation Yrotation Xrotation
				JOINT Neck
				{
					OFFSET 0.000000 0.000000 0.000000
					CHANNELS 3 Zrotation Yrotation Xrotation
					JOINT Neck1
					{
						OFFSET -0.054170 1.746240 0.172020
						CHANNELS 3 Zrotation Yrotation Xrotation
						JOINT Head
						{
							OFFSET 0.104070 1.761360 -0.123970
							CHANNELS 3 Zrotation Yrotation Xrotation
							End Site
							{
								OFFSET 0.000000 0.000000 0.000000
							}
						}
					}
				}
				JOINT LeftShoulder
				{
					OFFSET 0.000000 0.000000 0.000000
					CHANNELS 3 Zrotation Yrotation Xrotation
					JOINT LeftArm
					{
						OFFSET 3.362410 1.200890 -0.311210
						CHANNELS 3 Zrotation Yrotation Xrotation
						JOINT LeftForeArm
						{
							OFFSET 4.983000 -0.000000 -0.000000
							CHANNELS 3 Zrotation Yrotation Xrotation
							JOINT LeftHand
							{
								OFFSET 3.483560 -0.000000 -0.000000
								CHANNELS 3 Zrotation Yrotation Xrotation
								JOINT LeftFingerBase
								{
									OFFSET 0.000000 0.000000 0.000000
									CHANNELS 3 Zrotation Yrotation Xrotation
									JOINT LeftHandIndex1
									{
										OFFSET 0.715260 -0.000000 -0.000000
										CHANNELS 3 Zrotation Yrotation Xrotation
										End Site
										{
											OFFSET 0.000000 0.000000 0.000000
										}
									}
								}
								JOINT LThumb
								{
									OFFSET 0.000000 0.000000 0.000000
									CHANNELS 3 Zrotation Yrotation Xrotation
									End Site
									{
										OFFSET 0.000000 0.000000 0.000000
									}
								}
							}
						}
					}
				}
				JOINT RightShoulder
				{
					OFFSET 0.000000 0.000000 0.000000
					CHANNELS 3 Zrotation Yrotation Xrotation
					JOINT RightArm
					{
						OFFSET -3.136600 1.374050 -0.404650
						CHANNELS 3 Zrotation Yrotation Xrotation
						JOINT RightForeArm
						{
							OFFSET -5.241900 -0.000000 -0.000000
							CHANNELS 3 Zrotation Yrotation Xrotation
							JOINT RightHand
							{
								OFFSET -3.444170 -0.000000 -0.000000
								CHANNELS 3 Zrotation Yrotation Xrotation
								JOINT RightFingerBase
								{
									OFFSET 0.000000 0.000000 0.000000
									CHANNELS 3 Zrotation Yrotation Xrotation
									JOINT RightHandIndex1
									{
										OFFSET -0.622530 -0.000000 -0.000000
										CHANNELS 3 Zrotation Yrotation Xrotation
										End Site
										{
											OFFSET 0.000000 0.000000 0.000000
										}
									}
								}
								JOINT RThumb
								{
									OFFSET 0.000000 0.000000 0.000000
									CHANNELS 3 Zrotation Yrotation Xrotation
									End Site
									{
										OFFSET 0.000000 0.000000 0.000000
									}
								}
							}
						}
					}
				}
			}
		}
	}
}
MOTION
Frames: 12
Frame Time: 0.008333
-9.162484 16.927339 -1.397259 168.744555 86.255467 178.358151 -9.141479 1.691879 5.930384 -15.982776 -9.551934 -30.386285 -3.070477 -0.206346 12.728221 -0.493554 -4.089939 0.871789 -0.260500 0.000000 -18.633200 10.640978 -4.799885 -0.893168 5.219223 -16.733910 -0.619443 0.447095 -2.631368 35.014544 0.220949 17.975044 26.209576 9.684500 -0.000000 -84.692800 -3.818234 2.056664 -6.700227 -2.126871 2.055016 -3.994835 -7.995241 2.011083 1.815807 12.944279 -7.272359 -8.721393 -3.714839 -0.287535 -0.291701 0.000000 0.000000 0.000000 -1.277586 24.174335 1.021589 -58.694678 16.277843 -21.044686 -3.910735 -28.781614 0.001753 5.924446 1.783741 0.098518 -0.167817 -0.057645 -0.000000 0.000000 0.000000 0.000000 0.000000 0.000000 0.000000 20.124750 0.877012 -0.855460 70.036354 15.933420 2.650924 2.274710 47.334604 0.009912 0.256695 7.499243 0.015898 0.044403 -0.258550 0.000000 0.000000 0.000000 0.000000 0.000000 0.000000 0.000000 
-8.991759 16.933040 -1.387015 163.803133 85.992179 173.320161 -9.014261 1.798988 5.913658 -16.493135 -9.810451 -29.929902 -3.082859 -0.122170 13.554945 -0.454761 -3.863575 0.602747 -0.220700 0.000000 -16.705701 10.901342 -4.628870 -0.950514 4.564005 -16.891611 -1.876565 0.192703 -2.698842 37.770328 0.004248 17.703160 28.168752 10.144900 -0.000001 -81.985500 -4.198352 1.937256 -6.613005 -2.201270 1.979842 -3.982469 -7.981172 1.936094 1.791509 12.960161 -7.315699 -8.735398 -3.713220 -0.286954 -0.297101 0.000000 0.000000 0.000000 -1.319529 23.972568 1.017941 -58.598073 15.902160 -20.947260 -3.921097 -28.576992 0.001672 5.994030 1.785573 0.099614 -0.166735 -0.056015 -0.000000 0.000000 0.000000 0.000000 0.000000 0.000000 0.000000 20.153767 0.755412 -0.858461 70.756383 15.488571 2.061692 2.303083 46.441820 0.009365 0.060817 7.535268 0.002481 0.046991 -0.254935 0.000000 0.000000 0.000000 0.000000 0.000000 0.000000 0.000000 
-8.826047 16.939339 -1.379789 159.958536 85.746259 169.379684 -8.911426 1.875339 5.881766 -16.938168 -10.031828 -29.409329 -3.092892 -0.057421 14.277327 -0.413381 -3.642297 0.194804 -0.178901 0.000000 -14.821800 11.112334 -4.451774 -1.018804 4.046322 -16.967141 -3.184821 -0.038786 -2.769779 40.573313 -0.220073 16.687276 29.761918 10.050900 0.000001 -78.861000 -4.496923 1.819652 -6.493267 -2.253987 1.899407 -3.961716 -7.952698 1.856330 1.768788 12.930726 -7.346998 -8.758828 -3.708025 -0.285905 -0.304975 0.000000 0.000000 0.000000 -1.416293 23.780486 1.018735 -58.578967 15.471835 -20.839957 -3.925789 -28.386200 0.001615 6.080636 1.782143 0.100709 -0.165230 -0.054246 -0.000000 0.000000 0.000000 0.000000 0.000000 0.000000 0.000000 20.117084 0.641261 -0.856877 71.444399 15.075994 1.503821 2.330157 45.500865 0.008791 -0.144005 7.557222 -0.011743 0.049631 -0.250894 0.000000 0.000000 0.000000 0.000000 0.000000 0.000000 0.000000 
-8.665038 16.946405 -1.375786 156.941169 85.538808 166.259516 -8.832262 1.926497 5.835334 -17.318007 -10.214144 -28.816714 -3.099639 -0.010393 14.887741 -0.368293 -3.414889 -0.317351 -0.136500 -0.000000 -13.039000 11.279274 -4.269107 -1.100205 3.646744 -16.978116 -4.525591 -0.252728 -2.847663 43.391546 -0.452996 14.876706 30.907275 9.327200 -0.000000 -75.634001 -4.713638 1.707164 -6.341006 -2.285303 1.816381 -3.932438 -7.912650 1.774383 1.750413 12.864212 -7.372213 -8.793572 -3.700701 -0.284483 -0.315884 0.000000 0.000000 0.000000 -1.560423 23.610086 1.021951 -58.637666 14.977308 -20.723943 -3.925186 -28.199781 0.001593 6.185048 1.769546 0.101503 -0.163319 -0.052342 -0.000000 0.000000 0.000000 0.000000 0.000000 0.000000 0.000000 20.032311 0.530547 -0.850207 72.081972 14.698719 0.999697 2.356888 44.518975 0.008215 -0.354751 7.568574 -0.026371 0.052346 -0.246454 0.000000 0.000000 0.000000 0.000000 0.000000 0.000000 0.000000 
-8.508177 16.954461 -1.375849 154.828089 85.389237 164.039968 -8.786923 1.954563 5.772576 -17.610280 -10.321897 -28.188150 -3.099314 0.023264 15.421402 -0.322731 -3.207930 -0.907144 -0.099299 0.000000 -11.435500 11.397586 -4.089296 -1.185794 3.393813 -16.912687 -5.892397 -0.452414 -2.935019 46.182855 -0.697129 12.271018 31.527988 7.965400 0.000001 -72.538600 -4.821552 1.602917 -6.168293 -2.290033 1.730909 -3.896290 -7.863911 1.690376 1.740125 12.764073 -7.392376 -8.840640 -3.692613 -0.282817 -0.329929 0.000000 0.000000 0.000000 -1.754386 23.480325 1.025044 -58.771129 14.403937 -20.599490 -3.919955 -28.002949 0.001613 6.306040 1.743176 0.101798 -0.161027 -0.050308 -0.000000 0.000000 0.000000 0.000000 0.000000 0.000000 0.000000 19.908752 0.423839 -0.839978 72.649589 14.348957 0.564271 2.384361 43.510407 0.007673 -0.564040 7.569185 -0.040803 0.055119 -0.241561 0.000000 0.000000 0.000000 0.000000 0.000000 0.000000 0.000000 
-8.355190 16.963711 -1.378752 152.970420 85.298250 162.058629 -8.757580 1.968111 5.697350 -17.856612 -10.395025 -27.474390 -3.095945 0.042019 15.823808 -0.271463 -2.963395 -1.517304 -0.062401 0.000000 -10.037300 11.488061 -3.903222 -1.283088 3.202313 -16.799630 -7.258292 -0.642980 -3.031856 48.919006 -0.955685 8.998099 31.551514 6.075500 -0.000000 -69.600400 -4.864706 1.505603 -5.968131 -2.279201 1.646175 -3.855401 -7.810511 1.607251 1.726441 12.642195 -7.402746 -8.888611 -3.686813 -0.281297 -0.344236 0.000000 0.000000 0.000000 -1.991784 23.338900 1.028362 -58.964875 13.832997 -20.448369 -3.908113 -27.854700 0.001675 6.442975 1.717748 0.102392 -0.158292 -0.048533 -0.000000 0.000000 0.000000 0.000000 0.000000 0.000000 0.000000 19.770267 0.327403 -0.821087 73.147203 14.013469 0.195558 2.413217 42.477091 0.007186 -0.770592 7.575892 -0.055137 0.057933 -0.236469 0.000000 0.000000 0.000000 0.000000 0.000000 0.000000 0.000000 
-8.205234 16.974434 -1.385704 151.733659 85.280261 160.698311 -8.760859 1.966731 5.609237 -18.017602 -10.382687 -26.751763 -3.083829 0.051712 16.160906 -0.221049 -2.734362 -2.132708 -0.032800 0.000000 -8.943200 11.539096 -3.725626 -1.373524 3.135146 -16.603993 -8.634689 -0.823241 -3.138905 51.553126 -1.227408 5.215611 30.923703 3.819300 -0.000000 -66.772500 -4.803440 1.417533 -5.766158 -2.244981 1.560506 -3.811648 -7.754667 1.523578 1.721944 12.502253 -7.411436 -8.944700 -3.683386 -0.279889 -0.360511 0.000000 0.000000 0.000000 -2.268250 23.239064 1.028066 -59.221216 13.196386 -20.281224 -3.892302 -27.694270 0.001784 6.592360 1.678122 0.102186 -0.155205 -0.046754 -0.000000 0.000000 0.000000 0.000000 0.000000 0.000000 0.000000 19.623635 0.233244 -0.799493 73.556288 13.690386 -0.092243 2.444741 41.436131 0.006794 -0.965330 7.583160 -0.068672 0.060769 -0.231018 0.000000 0.000000 0.000000 0.000000 0.000000 0.000000 0.000000 
-8.057802 16.986785 -1.396011 150.833253 85.332891 159.675455 -8.787946 1.955796 5.511908 -18.112244 -10.301371 -26.015485 -3.064805 0.052804 16.417241 -0.170505 -2.501244 -2.718210 -0.008600 -0.000001 -8.182400 11.561602 -3.555412 -1.454785 3.152247 -16.331153 -10.012744 -0.993307 -3.255037 54.050725 -1.508156 1.186263 29.625808 1.445300 -0.000000 -63.885600 -4.660942 1.337297 -5.567859 -2.193497 1.474899 -3.767464 -7.699166 1.440195 1.722564 12.352942 -7.417090 -9.002522 -3.683893 -0.278815 -0.377091 0.000000 0.000000 0.000000 -2.575579 23.158636 1.023729 -59.530625 12.528949 -20.089373 -3.872269 -27.541468 0.001935 6.750493 1.630448 0.101480 -0.151772 -0.045119 -0.000000 0.000000 0.000000 0.000000 0.000000 0.000000 0.000000 19.483985 0.142589 -0.774220 73.878435 13.370108 -0.305889 2.479391 40.393422 0.006509 -1.145483 7.600258 -0.081406 0.063597 -0.225337 0.000000 0.000000 0.000000 0.000000 0.000000 0.000000 0.000000 
-7.912291 17.000780 -1.409300 150.192948 85.453201 158.923980 -8.835684 1.938917 5.409613 -18.145703 -10.154668 -25.288141 -3.039455 0.046929 16.601993 -0.121269 -2.268395 -3.254361 0.010200 0.000000 -7.776800 11.560571 -3.396042 -1.518732 3.241427 -15.976060 -11.397587 -1.151154 -3.378144 56.376980 -1.789296 -2.805939 27.688667 -0.785900 -0.000001 -60.720300 -4.447606 1.263990 -5.387141 -2.127917 1.389401 -3.725084 -7.646361 1.357134 1.731100 12.201916 -7.416452 -9.060617 -3.689066 -0.278166 -0.393623 0.000000 0.000000 0.000000 -2.898716 23.110207 1.014649 -59.889100 11.812970 -19.870630 -3.849476 -27.373380 0.002108 6.913605 1.574041 0.100274 -0.148061 -0.043517 -0.000000 0.000000 0.000000 0.000000 0.000000 0.000000 0.000000 19.362257 0.058814 -0.748239 74.115579 13.038155 -0.465409 2.516920 39.368318 0.006352 -1.300495 7.624071 -0.092441 0.066275 -0.219441 0.000000 0.000000 0.000000 0.000000 0.000000 0.000000 0.000000 
-7.768707 17.016453 -1.424745 149.607307 85.632567 158.232951 -8.896340 1.918973 5.300663 -18.137666 -9.954147 -24.550766 -3.010395 0.034190 16.697523 -0.073100 -2.026940 -3.724545 0.024900 0.000001 -7.702400 11.544222 -3.245860 -1.565432 3.365552 -15.541757 -12.766632 -1.293946 -3.504865 58.489900 -2.060544 -6.499353 25.213645 -2.651600 -0.000001 -57.309099 -4.183749 1.195535 -5.218667 -2.052837 1.304023 -3.685672 -7.596727 1.274105 1.738989 12.051709 -7.423238 -9.111325 -3.698992 -0.278059 -0.407939 0.000000 0.000000 0.000000 -3.242826 23.034419 1.000702 -60.286823 11.128662 -19.617305 -3.822300 -27.247574 0.002304 7.072511 1.521679 0.099068 -0.144051 -0.042269 -0.000000 0.000000 0.000000 0.000000 0.000000 0.000000 0.000000 19.262545 -0.035785 -0.717042 74.276243 12.711416 -0.556577 2.558532 38.336392 0.006310 -1.448718 7.679096 -0.103473 0.069052 -0.213534 0.000000 0.000000 0.000000 0.000000 0.000000 0.000000 0.000000 
-7.626380 17.033598 -1.441985 149.079139 85.862627 157.622783 -8.967974 1.898667 5.191258 -18.090551 -9.703464 -23.838911 -2.978867 0.016055 16.723728 -0.028543 -1.795486 -4.129372 0.035400 -0.000000 -7.932300 11.515032 -3.108290 -1.584382 3.523590 -15.025867 -14.141262 -1.417810 -3.630254 60.368234 -2.308026 -9.686857 22.328751 -4.006699 -0.000000 -53.470800 -3.878905 1.130392 -5.081352 -1.970892 1.217800 -3.651329 -7.551823 1.190176 1.752944 11.908990 -7.427545 -9.156065 -3.713551 -0.278471 -0.420481 0.000000 0.000000 0.000000 -3.583339 22.967619 0.982344 -60.723323 10.420625 -19.329751 -3.793506 -27.111879 0.002477 7.223181 1.471311 0.097761 -0.139881 -0.041026 -0.000000 0.000000 0.000000 0.000000 0.000000 0.000000 0.000000 19.190270 -0.130667 -0.686511 74.368586 12.365968 -0.623567 2.602522 37.332185 0.006388 -1.571844 7.746007 -0.113003 0.071635 -0.207539 0.000000 0.000000 0.000000 0.000000 0.000000 0.000000 0.000000 
-7.485228 17.051947 -1.460176 148.448171 86.130006 156.932172 -9.044361 1.880018 5.081230 -18.022273 -9.413562 -23.141621 -2.947986 -0.007559 16.671624 0.011893 -1.576608 -4.469853 0.042600 0.000001 -8.396300 11.478263 -2.980577 -1.575426 3.688403 -14.438827 -15.511357 -1.518859 -3.749066 61.987086 -2.519174 -12.243144 19.202807 -4.804600 -0.000000 -49.328400 -3.552577 1.065953 -4.972387 -1.886150 1.129894 -3.622389 -7.511290 1.104351 1.769239 11.775845 -7.437389 -9.191320 -3.731929 -0.279375 -0.430263 0.000000 0.000000 0.000000 -3.914355 22.879359 0.960614 -61.193131 9.723305 -19.004299 -3.762896 -26.988748 0.002608 7.357557 1.432692 0.096854 -0.135604 -0.039835 -0.000000 0.000000 0.000000 0.000000 0.000000 0.000000 0.000000 19.144969 -0.237005 -0.655237 74.405447 12.010144 -0.673486 2.648586 36.347332 0.006562 -1.680374 7.831403 -0.122030 0.074122 -0.201560 0.000000 0.000000 0.000000 0.000000 0.000000 0.000000 0.000000 
